<svg xmlns="http://www.w3.org/2000/svg" width="59.057" height="59.057" viewBox="0 0 59.057 59.057">
  <path id="noun-close-1111620" d="M230.2,130.67A29.528,29.528,0,1,0,259.727,160.2,29.615,29.615,0,0,0,230.2,130.67Zm11.812,36.172a3.569,3.569,0,0,1,0,5.168,3.567,3.567,0,0,1-5.167,0l-6.644-6.644-6.644,6.644a3.567,3.567,0,0,1-5.167,0,3.569,3.569,0,0,1,0-5.168l6.644-6.644-6.644-6.644a3.654,3.654,0,1,1,5.168-5.167l6.644,6.644,6.644-6.644a3.654,3.654,0,0,1,5.167,5.167l-6.644,6.644Z" transform="translate(-200.67 -130.67)" fill="#c40000"/>
</svg>
