<svg xmlns="http://www.w3.org/2000/svg" xmlns:xlink="http://www.w3.org/1999/xlink" width="229.979" height="54.919" viewBox="0 0 229.979 54.919">
  <defs>
    <linearGradient id="linear-gradient" x1="1" y1="0.088" x2="0.08" y2="0.63" gradientUnits="objectBoundingBox">
      <stop offset="0" stop-color="#fff"/>
      <stop offset="1" stop-color="#fff"/>
    </linearGradient>
  </defs>
  <g id="Logo" transform="translate(0 3)">
    <path id="Path_7145" data-name="Path 7145" d="M0,60Z" transform="translate(0 -8.081)" fill="#87d130" style="mix-blend-mode: darken;isolation: isolate"/>
    <g id="Group_2454" data-name="Group 2454" transform="translate(8.888)" opacity="0.85">
      <g id="Conqur" transform="translate(8.674 7.717)" style="isolation: isolate">
        <g id="Group_2451" data-name="Group 2451" transform="translate(0 0)" style="isolation: isolate">
          <path id="Path_1987" data-name="Path 1987" d="M101.9,242.054h8.924a11.953,11.953,0,0,1-1.479,5.235,9.474,9.474,0,0,1-3.307,3.361,14.459,14.459,0,0,1-4.728,1.773,29.377,29.377,0,0,1-5.691.527,28.786,28.786,0,0,1-5.925-.581,14.019,14.019,0,0,1-4.86-1.958,9.484,9.484,0,0,1-3.282-3.72,12.883,12.883,0,0,1-1.188-5.854v-1.809a12.82,12.82,0,0,1,1.188-5.843,9.486,9.486,0,0,1,3.282-3.712A14.139,14.139,0,0,1,89.7,227.5a28.319,28.319,0,0,1,5.925-.591,28.855,28.855,0,0,1,5.691.535,14.618,14.618,0,0,1,4.728,1.782,9.5,9.5,0,0,1,3.307,3.351,11.884,11.884,0,0,1,1.479,5.225H101.9a3.653,3.653,0,0,0-1.312-1.865,5.359,5.359,0,0,0-2.194-.9,15.076,15.076,0,0,0-2.775-.239,13.591,13.591,0,0,0-3.282.369,4.387,4.387,0,0,0-2.368,1.412,4.629,4.629,0,0,0-.88,3.056v.609a4.594,4.594,0,0,0,.88,3.037,4.434,4.434,0,0,0,2.368,1.422,13.3,13.3,0,0,0,3.282.378,14.5,14.5,0,0,0,2.775-.249,5.532,5.532,0,0,0,2.194-.9A3.6,3.6,0,0,0,101.9,242.054Z" transform="translate(-80.365 -226.914)" fill="#fff"/>
          <path id="Path_1988" data-name="Path 1988" d="M136.933,227.5a13.924,13.924,0,0,1,4.853,1.957,9.5,9.5,0,0,1,3.273,3.721,12.879,12.879,0,0,1,1.188,5.853v1.809a12.824,12.824,0,0,1-1.188,5.844,9.587,9.587,0,0,1-3.273,3.72,13.828,13.828,0,0,1-4.853,1.967,30.517,30.517,0,0,1-11.857,0,13.829,13.829,0,0,1-4.861-1.967,9.589,9.589,0,0,1-3.274-3.72,12.824,12.824,0,0,1-1.188-5.844v-1.809a12.879,12.879,0,0,1,1.188-5.853,9.505,9.505,0,0,1,3.274-3.721,13.924,13.924,0,0,1,4.861-1.957,30.515,30.515,0,0,1,11.857,0Zm.606,12.731v-.61a4.6,4.6,0,0,0-.88-3.037,4.435,4.435,0,0,0-2.368-1.422,14.5,14.5,0,0,0-6.581,0,4.434,4.434,0,0,0-2.368,1.422,4.6,4.6,0,0,0-.881,3.037v.61a4.625,4.625,0,0,0,.881,3.055,4.434,4.434,0,0,0,2.368,1.422,14.5,14.5,0,0,0,6.581,0,4.434,4.434,0,0,0,2.368-1.422A4.624,4.624,0,0,0,137.539,240.227Z" transform="translate(-82.298 -226.914)" fill="#fff"/>
          <path id="Path_1989" data-name="Path 1989" d="M173.42,227.558h8.724v24.816h-9.8l-12-15.159v15.159h-8.708V227.558h11.982l9.8,13.146Z" transform="translate(-84.258 -226.949)" fill="#fff"/>
          <path id="Path_1990" data-name="Path 1990" d="M218.588,240.855a12.737,12.737,0,0,1-1.214,5.89,9.648,9.648,0,0,1-3.34,3.73l4.554,7.329h-9.273l-2.809-4.985q-1.546.149-3.174.148a28.782,28.782,0,0,1-5.925-.581,14.017,14.017,0,0,1-4.86-1.957,9.5,9.5,0,0,1-3.282-3.712,12.869,12.869,0,0,1-1.188-5.862v-1.809a12.825,12.825,0,0,1,1.188-5.844,9.5,9.5,0,0,1,3.282-3.712,14.158,14.158,0,0,1,4.86-1.966,30,30,0,0,1,11.848,0,14.156,14.156,0,0,1,4.861,1.966A9.5,9.5,0,0,1,217.4,233.2a12.825,12.825,0,0,1,1.188,5.844ZM203.333,245.1a13.349,13.349,0,0,0,3.282-.378,4.435,4.435,0,0,0,2.367-1.422,4.59,4.59,0,0,0,.881-3.037v-.61a4.619,4.619,0,0,0-.881-3.055,4.376,4.376,0,0,0-2.367-1.412,14.8,14.8,0,0,0-6.573,0,4.411,4.411,0,0,0-2.367,1.412,4.594,4.594,0,0,0-.89,3.055v.61a4.565,4.565,0,0,0,.89,3.037,4.471,4.471,0,0,0,2.367,1.422A13.321,13.321,0,0,0,203.333,245.1Z" transform="translate(-86.249 -226.915)" fill="#fff"/>
          <path id="Path_1991" data-name="Path 1991" d="M245.62,227.558h8.725V240.89a12.821,12.821,0,0,1-1.188,5.843,9.492,9.492,0,0,1-3.282,3.712,14.018,14.018,0,0,1-4.86,1.958,30.474,30.474,0,0,1-11.848,0,14.022,14.022,0,0,1-4.861-1.958,9.493,9.493,0,0,1-3.282-3.712,12.821,12.821,0,0,1-1.188-5.843V227.558h8.708V240.28a4.6,4.6,0,0,0,.89,3.056,4.429,4.429,0,0,0,2.368,1.412,14.829,14.829,0,0,0,6.572,0,4.387,4.387,0,0,0,2.368-1.412,4.629,4.629,0,0,0,.88-3.056Z" transform="translate(-88.202 -226.949)" fill="#fff"/>
          <path id="Path_1992" data-name="Path 1992" d="M282.676,227.578a7.55,7.55,0,0,1,4.246,1.265,9.156,9.156,0,0,1,3.058,3.388,10.324,10.324,0,0,1-.2,9.8,8.785,8.785,0,0,1-3.532,3.406l4.87,6.962h-9.273l-4.2-6.057h-7.778v6.057h-8.708V227.578Zm-12.813,7.257v4.228h10.619a1.754,1.754,0,0,0,1.354-.618,2.144,2.144,0,0,0,.557-1.486,2.168,2.168,0,0,0-.557-1.5,1.751,1.751,0,0,0-1.354-.618Z" transform="translate(-90.241 -226.95)" fill="#fff"/>
        </g>
      </g>
      <path id="Path_2000" data-name="Path 2000" d="M261.8,324.711h23.02v18.347" transform="translate(-66.733 -324.711)" fill="none" stroke="#fff" stroke-linecap="square" stroke-linejoin="round" stroke-width="6"/>
      <path id="Path_2001" data-name="Path 2001" d="M284.824,324.711H261.8v18.347" transform="translate(-261.804 -324.711)" fill="none" stroke="#fff" stroke-linecap="square" stroke-linejoin="round" stroke-width="6"/>
    </g>
    <path id="Intersection_1" data-name="Intersection 1" d="M54.969,30.872,52.14,25.887q-1.556.149-3.195.148a29.133,29.133,0,0,1-5.964-.582A14.147,14.147,0,0,1,38.089,23.5a9.515,9.515,0,0,1-3.3-3.711,12.8,12.8,0,0,1-1.2-5.862v-1.81a12.752,12.752,0,0,1,1.2-5.844,9.523,9.523,0,0,1,3.3-3.712A14.326,14.326,0,0,1,42.982.59a30.413,30.413,0,0,1,11.928,0A14.323,14.323,0,0,1,59.8,2.557a9.523,9.523,0,0,1,3.3,3.712,12.752,12.752,0,0,1,1.2,5.844v1.81a12.665,12.665,0,0,1-1.221,5.889,9.672,9.672,0,0,1-3.363,3.731L64.3,30.872ZM45.633,8.254A4.448,4.448,0,0,0,43.25,9.666a4.575,4.575,0,0,0-.9,3.055v.61a4.548,4.548,0,0,0,.9,3.037,4.514,4.514,0,0,0,2.384,1.422,14.675,14.675,0,0,0,6.617,0,4.473,4.473,0,0,0,2.383-1.422,4.566,4.566,0,0,0,.887-3.037v-.61a4.593,4.593,0,0,0-.887-3.055A4.408,4.408,0,0,0,52.25,8.254a14.97,14.97,0,0,0-6.617,0ZM77.012,25.435a14.152,14.152,0,0,1-4.893-1.958,9.515,9.515,0,0,1-3.3-3.711,12.75,12.75,0,0,1-1.2-5.844V.59h8.766V13.312a4.582,4.582,0,0,0,.9,3.057,4.47,4.47,0,0,0,2.385,1.412,15.034,15.034,0,0,0,6.616,0,4.425,4.425,0,0,0,2.385-1.412,4.609,4.609,0,0,0,.886-3.057V.59h8.783V13.922a12.75,12.75,0,0,1-1.2,5.844,9.515,9.515,0,0,1-3.3,3.711,14.148,14.148,0,0,1-4.892,1.958,29.136,29.136,0,0,1-5.965.582A29.131,29.131,0,0,1,77.012,25.435Zm46.952-.009-4.232-6.057H111.9v6.057h-8.766V.609H124.8a7.64,7.64,0,0,1,4.274,1.265,9.18,9.18,0,0,1,3.078,3.388A9.8,9.8,0,0,1,133.3,9.99a9.729,9.729,0,0,1-1.346,5.068,8.824,8.824,0,0,1-3.555,3.406l4.9,6.962ZM111.9,12.094h10.69a1.773,1.773,0,0,0,1.363-.618,2.277,2.277,0,0,0,0-2.992,1.768,1.768,0,0,0-1.363-.619H111.9ZM19.835,25.407,0,.59H10.968l9.87,13.146V.59H29.62V25.407Z" transform="translate(85.424 7.735)" fill="url(#linear-gradient)"/>
  </g>
</svg>
