<svg id="noun-download-1085908" xmlns="http://www.w3.org/2000/svg" width="30.689" height="32.684" viewBox="0 0 30.689 32.684">
  <path id="Path_10182" data-name="Path 10182" d="M216.6,24.06a2.921,2.921,0,0,0,3.147,0l6.133-6.133a1.518,1.518,0,0,0-2.146-2.146L220.2,19.307V1.522c0-.92-1.126-1.395-2.046-1.395s-2.02.475-2.02,1.395V19.307l-3.526-3.526a1.518,1.518,0,0,0-2.146,2.146Z" transform="translate(-202.828 -0.127)"/>
  <path id="Path_10183" data-name="Path 10183" d="M99.156,390.924a1.448,1.448,0,0,0-1.533,1.533v4.6H73.091v-4.6a1.533,1.533,0,1,0-3.066,0L70,399.751a1.449,1.449,0,0,0,1.533,1.533h27.6a1.449,1.449,0,0,0,1.533-1.533l.025-7.294A1.448,1.448,0,0,0,99.156,390.924Z" transform="translate(-70 -368.6)"/>
</svg>
