<svg xmlns="http://www.w3.org/2000/svg" width="12.322" height="10.821" viewBox="0 0 12.322 10.821">
  <path id="Path_9750" data-name="Path 9750" d="M215.335,169.393a3.037,3.037,0,0,0-1.933-.686,3.087,3.087,0,0,0-2.183.9,3.135,3.135,0,0,0-.286.332,3.066,3.066,0,0,0-2.993-1.185,3.181,3.181,0,0,0-2.216,1.55,3.226,3.226,0,0,0-.178,3.461,8.994,8.994,0,0,0,1.309,1.736,25.047,25.047,0,0,0,3.761,3.206.541.541,0,0,0,.315.105.558.558,0,0,0,.343-.129,25.831,25.831,0,0,0,3.471-2.909,9.044,9.044,0,0,0,1.6-2.064,2.854,2.854,0,0,0,.4-1.4,4.054,4.054,0,0,0-.517-2.156A2.839,2.839,0,0,0,215.335,169.393Z" transform="translate(-204.768 -168.341)" fill="#fff" stroke="#fff" stroke-width="0.7"/>
</svg>
