<svg xmlns="http://www.w3.org/2000/svg" width="18.338" height="18.338" viewBox="0 0 18.338 18.338">
  <path id="Path_9751" data-name="Path 9751" d="M6.441,13.3A7.2,7.2,0,0,0,13.3,6.436,6.153,6.153,0,0,0,6.867,0,7.2,7.2,0,0,0,0,6.872,6.153,6.153,0,0,0,6.441,13.3Zm.018-.57a6.578,6.578,0,0,0,6.275-6.279A5.626,5.626,0,0,0,6.849.574,6.578,6.578,0,0,0,.574,6.853,5.626,5.626,0,0,0,6.459,12.734Zm.03-.95c.414-.014-5.857-.852-3.8-5.95,1.737-3.853,6.638-2.78,6.736.064a4.285,4.285,0,0,1,2.449.584A4.821,4.821,0,0,0,6.819,1.524a5.551,5.551,0,0,0-5.295,5.3A4.747,4.747,0,0,0,6.49,11.784Zm.14-4.37c.42-.014,4.951-.5,4.965-.922s-4.5-.612-4.916-.6a.822.822,0,0,0-.784.785A.7.7,0,0,0,6.63,7.414Zm.012-.38a.411.411,0,0,0,.392-.392.352.352,0,0,0-.368-.368.411.411,0,0,0-.392.392A.352.352,0,0,0,6.642,7.034Z" transform="matrix(0.848, 0.53, -0.53, 0.848, 7.052, 0)" fill="#fff" fill-rule="evenodd"/>
</svg>
