<svg id="undraw_data_re_80ws" xmlns="http://www.w3.org/2000/svg" width="587.805" height="412.161" viewBox="0 0 587.805 412.161">
  <path id="Path_9974" data-name="Path 9974" d="M646.178,365.294H267.6a9.759,9.759,0,0,1-9.748-9.748V122.106a7.149,7.149,0,0,1,7.141-7.141h383.67a7.273,7.273,0,0,1,7.265,7.265V355.547a9.759,9.759,0,0,1-9.747,9.748Z" transform="translate(-166.076 -106.809)" fill="#e3e3e3"/>
  <path id="Path_9975" data-name="Path 9975" d="M640.9,363.921H288.069c-5.172,0-9.38-3.94-9.38-8.783V151.855a6.751,6.751,0,0,1,6.951-6.514H643.21a6.862,6.862,0,0,1,7.066,6.622V355.138C650.276,359.981,646.068,363.921,640.9,363.921Z" transform="translate(-174.604 -119.24)" fill="#fff"/>
  <path id="Path_9976" data-name="Path 9976" d="M655.7,115.9H257.618v-4.963a9.791,9.791,0,0,1,9.783-9.777H645.912a9.791,9.791,0,0,1,9.783,9.777Z" transform="translate(-165.981 -101.159)" fill="#cecece"/>
  <circle id="Ellipse_600" data-name="Ellipse 600" cx="2.53" cy="2.53" r="2.53" transform="translate(106.886 4.854)" fill="#fff"/>
  <circle id="Ellipse_601" data-name="Ellipse 601" cx="2.53" cy="2.53" r="2.53" transform="translate(116.491 4.854)" fill="#fff"/>
  <circle id="Ellipse_602" data-name="Ellipse 602" cx="2.53" cy="2.53" r="2.53" transform="translate(126.096 4.854)" fill="#fff"/>
  <path id="Path_9977" data-name="Path 9977" d="M629.5,353.787H356.073a10.35,10.35,0,0,1-10.338-10.338V211.618a7.741,7.741,0,0,1,7.732-7.732H631.981a7.864,7.864,0,0,1,7.855,7.856V343.448A10.35,10.35,0,0,1,629.5,353.787ZM353.466,205.068a6.558,6.558,0,0,0-6.55,6.551v131.83a9.167,9.167,0,0,0,9.157,9.157H629.5a9.167,9.167,0,0,0,9.157-9.157V211.742a6.681,6.681,0,0,0-6.674-6.674Z" transform="translate(-202.042 -143.2)" fill="#ccc"/>
  <path id="Path_9978" data-name="Path 9978" d="M372.686,350.69H627.208a9.452,9.452,0,0,0,9.452-9.452v-110.2a9.452,9.452,0,0,0-9.452-9.452H372.686a9.452,9.452,0,0,0-9.452,9.452v110.2A9.452,9.452,0,0,0,372.686,350.69Z" transform="translate(-209.203 -150.441)" fill="#f2f2f2"/>
  <circle id="Ellipse_603" data-name="Ellipse 603" cx="5.317" cy="5.317" r="5.317" transform="translate(187.066 92.569)" fill="#ccc"/>
  <circle id="Ellipse_604" data-name="Ellipse 604" cx="5.317" cy="5.317" r="5.317" transform="translate(187.066 112.655)" fill="#ccc"/>
  <circle id="Ellipse_605" data-name="Ellipse 605" cx="5.317" cy="5.317" r="5.317" transform="translate(187.066 132.741)" fill="#ccc"/>
  <circle id="Ellipse_606" data-name="Ellipse 606" cx="5.317" cy="5.317" r="5.317" transform="translate(187.066 152.826)" fill="#ccc"/>
  <path id="Path_9979" data-name="Path 9979" d="M647.609,267.036H472.744a.591.591,0,1,1,0-1.182H647.609a.591.591,0,0,1,0,1.182Z" transform="translate(-253.778 -168.56)" fill="#ccc"/>
  <path id="Path_9980" data-name="Path 9980" d="M647.609,301.036H472.744a.591.591,0,1,1,0-1.181H647.609a.591.591,0,0,1,0,1.181Z" transform="translate(-253.778 -182.474)" fill="#ccc"/>
  <path id="Path_9981" data-name="Path 9981" d="M647.609,335.036H472.744a.591.591,0,1,1,0-1.181H647.609a.591.591,0,0,1,0,1.181Z" transform="translate(-253.778 -196.388)" fill="#ccc"/>
  <path id="Path_9982" data-name="Path 9982" d="M647.609,369.036H472.744a.591.591,0,1,1,0-1.182H647.609a.591.591,0,0,1,0,1.182Z" transform="translate(-253.778 -210.302)" fill="#ccc"/>
  <path id="Path_9983" data-name="Path 9983" d="M515.239,388.713H498.107a2.957,2.957,0,0,1-2.954-2.954V369.808a2.957,2.957,0,0,1,2.954-2.954h17.132a2.957,2.957,0,0,1,2.954,2.954v15.951A2.957,2.957,0,0,1,515.239,388.713Z" transform="translate(-263.19 -209.893)" fill="#c40000"/>
  <path id="Path_9984" data-name="Path 9984" d="M580.239,374.8H563.107a2.957,2.957,0,0,1-2.954-2.954V335.808a2.957,2.957,0,0,1,2.954-2.954h17.132a2.957,2.957,0,0,1,2.954,2.954v36.036A2.957,2.957,0,0,1,580.239,374.8Z" transform="translate(-289.791 -195.979)" fill="#c40000"/>
  <path id="Path_9985" data-name="Path 9985" d="M646.239,360.884H629.107a2.957,2.957,0,0,1-2.954-2.954V301.808a2.957,2.957,0,0,1,2.954-2.954h17.132a2.957,2.957,0,0,1,2.954,2.954v56.122A2.957,2.957,0,0,1,646.239,360.884Z" transform="translate(-316.801 -182.065)" fill="#c40000"/>
  <path id="Path_9986" data-name="Path 9986" d="M714.239,347.379H697.107a2.957,2.957,0,0,1-2.954-2.954V268.808a2.957,2.957,0,0,1,2.954-2.954h17.132a2.957,2.957,0,0,1,2.954,2.954v75.617A2.957,2.957,0,0,1,714.239,347.379Z" transform="translate(-344.629 -168.56)" fill="#c40000"/>
  <path id="Path_9987" data-name="Path 9987" d="M647.609,403.036H472.744a.591.591,0,1,1,0-1.182H647.609a.591.591,0,0,1,0,1.182Z" transform="translate(-253.778 -224.216)" fill="#3f3d56"/>
  <path id="Path_9988" data-name="Path 9988" d="M898.5,582.982a5.94,5.94,0,0,1,9.051-1.03l18.76-9.682-1.167,10.908L907.509,590.7a5.973,5.973,0,0,1-9.008-7.718Z" transform="translate(-427.843 -293.958)" fill="#ffb8b8"/>
  <path id="Path_9989" data-name="Path 9989" d="M924.786,559.617a2.662,2.662,0,0,1-.9-1.306l-1.492-4.82a2.667,2.667,0,0,1,.937-2.907l15.2-11.485L955,508.549a8.564,8.564,0,0,1,13.528,10.5l-9.369,19.773A27.4,27.4,0,0,1,945.3,552.235l-17.819,7.729a2.661,2.661,0,0,1-2.167-.023A2.627,2.627,0,0,1,924.786,559.617Z" transform="translate(-437.986 -266.525)" fill="#28272e"/>
  <circle id="Ellipse_607" data-name="Ellipse 607" cx="14.51" cy="14.51" r="14.51" transform="translate(516.45 200.255)" fill="#ffb8b8"/>
  <path id="Path_9990" data-name="Path 9990" d="M881.409,666.384h-7.242l-3.445-27.936h10.69Z" transform="translate(-356.336 -261.279)" fill="#ffb8b8"/>
  <path id="Path_9991" data-name="Path 9991" d="M861.7,682.233h13.968v8.795H852.908A8.8,8.8,0,0,1,861.7,682.233Z" transform="translate(-349.046 -279.198)" fill="#2f2e41"/>
  <path id="Path_9992" data-name="Path 9992" d="M921.409,666.386h-7.242l-3.445-27.936h10.69Z" transform="translate(-372.705 -261.28)" fill="#ffb8b8"/>
  <path id="Path_9993" data-name="Path 9993" d="M901.7,682.234h13.968v8.795H892.908A8.8,8.8,0,0,1,901.7,682.234Z" transform="translate(-365.415 -279.199)" fill="#2f2e41"/>
  <path id="Path_9994" data-name="Path 9994" d="M1001.1,706.932h-8.487a2.663,2.663,0,0,1-2.567-1.967l-12.217-45.312a.3.3,0,0,0-.58.095l2.468,42.973a2.658,2.658,0,0,1-2.875,2.8l-9.539-.8a2.666,2.666,0,0,1-2.42-2.342l-8.69-90.235,3.362,2.018,31.5-5.349,12.676,95.1a2.659,2.659,0,0,1-2.635,3.01Z" transform="translate(-451.866 -308.914)" fill="#75747c"/>
  <path id="Path_9995" data-name="Path 9995" d="M966.3,576.22a19.458,19.458,0,0,1-9.861-2.775,2.647,2.647,0,0,1-1.262-2.711c1.108-6.786,6.9-41.594,12.174-60.57,2.147-7.729,6.895-11.892,14.111-12.372,10.556-.692,19.938,7.566,20.915,18.432,1.724,19.169-5.277,46.4-8.367,57.224a2.656,2.656,0,0,1-4.187,1.363l-6.3-4.9a2.087,2.087,0,0,0-2.668.111C975.545,574.756,970.5,576.22,966.3,576.22Z" transform="translate(-451.435 -263.461)" fill="#28272e"/>
  <path id="Path_9996" data-name="Path 9996" d="M905.149,443.738l5.316,22.449-7.681,18.9,5.318-18.313Z" transform="translate(-369.457 -181.596)" opacity="0.2"/>
  <path id="Path_9997" data-name="Path 9997" d="M999.817,463.208a9.77,9.77,0,0,0,3.774-.683c.528-.2,1.077-.371,1.6-.574,4.656-1.8,7.724-6.757,7.834-11.748a16.918,16.918,0,0,0-6.311-13.026,24.427,24.427,0,0,0-13.785-5.211c-5.361-.408-11.4.951-14.394,5.416a4.7,4.7,0,0,0-.883,4.065,2.6,2.6,0,0,0,.733,1.126c1.338,1.19,2.672.3,4.036.216a4.462,4.462,0,0,1,4.163,3.186,9.6,9.6,0,0,1-.15,5.548,13.859,13.859,0,0,0-.7,3.373,3.391,3.391,0,0,0,1.405,2.986,3.871,3.871,0,0,0,3.882-.408,26.955,26.955,0,0,1,3.451-2.21c1.266-.52,2.967-.4,3.7.749a4.1,4.1,0,0,1,.468,1.352c.66,3.01.509,2.833,1.169,5.842Z" transform="translate(-460.579 -236.511)" fill="#2f2e41"/>
  <path id="Path_9998" data-name="Path 9998" d="M911.386,676.092l-90.856-31.642a6.236,6.236,0,0,1-3.834-7.931l23.61-67.795a4.569,4.569,0,0,1,5.811-2.809l93.928,32.711a4.648,4.648,0,0,1,2.857,5.911l-23.584,67.72a6.236,6.236,0,0,1-7.931,3.834Z" transform="translate(-394.637 -291.253)" fill="#e6e6e6"/>
  <path id="Path_9999" data-name="Path 9999" d="M833.74,646.375l79.448,27.668a6.04,6.04,0,0,0,7.691-3.718l19.065-54.744a6.04,6.04,0,0,0-3.718-7.691l-79.448-27.668a6.04,6.04,0,0,0-7.691,3.718l-19.065,54.744a6.04,6.04,0,0,0,3.718,7.691Z" transform="translate(-400.094 -297.074)" fill="#fff"/>
  <path id="Path_10000" data-name="Path 10000" d="M867.2,622.506l-3.935-1.37a.853.853,0,0,1-.525-1.085l1.37-3.935a.853.853,0,0,1,1.085-.525l3.935,1.37a.853.853,0,0,1,.524,1.085l-1.37,3.935a.853.853,0,0,1-1.085.524Z" transform="translate(-413.602 -311.667)" fill="#c40000"/>
  <path id="Path_10001" data-name="Path 10001" d="M861.189,639.762l-3.935-1.37a.853.853,0,0,1-.525-1.085l1.37-3.935a.853.853,0,0,1,1.085-.524l3.935,1.37a.853.853,0,0,1,.524,1.085l-1.37,3.935a.853.853,0,0,1-1.085.525Z" transform="translate(-411.143 -318.729)" fill="#eb8e8e"/>
  <path id="Path_10002" data-name="Path 10002" d="M855.179,657.018l-3.935-1.37a.853.853,0,0,1-.525-1.085l1.37-3.935a.853.853,0,0,1,1.085-.525l3.935,1.37a.853.853,0,0,1,.524,1.085l-1.37,3.935A.853.853,0,0,1,855.179,657.018Z" transform="translate(-408.683 -325.791)" fill="#ccc"/>
  <path id="Path_10003" data-name="Path 10003" d="M901.545,633.459l-18.958-6.6a.852.852,0,0,1,.561-1.61l18.958,6.6a.852.852,0,1,1-.561,1.61Z" transform="translate(-421.51 -315.619)" fill="#ccc"/>
  <path id="Path_10004" data-name="Path 10004" d="M895.536,650.715l-18.958-6.6a.852.852,0,1,1,.561-1.61l18.958,6.6a.852.852,0,1,1-.56,1.61Z" transform="translate(-419.051 -322.68)" fill="#ccc"/>
  <path id="Path_10005" data-name="Path 10005" d="M889.526,667.972l-18.958-6.6a.852.852,0,0,1,.561-1.61l18.958,6.6a.852.852,0,0,1-.561,1.61Z" transform="translate(-416.591 -329.742)" fill="#ccc"/>
  <path id="Path_10006" data-name="Path 10006" d="M976.789,666.586c.138-.331.268-.668.388-1.011a17.864,17.864,0,0,0-10.995-22.745l-6.231,17.892Z" transform="translate(-453.405 -322.833)" fill="#c40000"/>
  <path id="Path_10007" data-name="Path 10007" d="M944.752,661.872l6.231-17.892a17.864,17.864,0,1,0,10.607,23.756Z" transform="translate(-440.017 -322.896)" fill="#eb8e8e"/>
  <path id="Path_10008" data-name="Path 10008" d="M994.631,613.784a5.94,5.94,0,0,1,6.486-6.4l8.786-19.2,5.813,9.3-9.235,16.8a5.973,5.973,0,0,1-11.851-.514Z" transform="translate(-467.589 -300.474)" fill="#ffb8b8"/>
  <path id="Path_10009" data-name="Path 10009" d="M1015.034,573.353a2.662,2.662,0,0,1-1.515-.473l-4.148-2.872a2.667,2.667,0,0,1-1.056-2.866l4.877-18.42-5.895-34.2a8.564,8.564,0,1,1,17.128-.083l4.831,21.34a27.4,27.4,0,0,1-2.632,19.1l-9.252,17.078a2.661,2.661,0,0,1-1.72,1.319A2.628,2.628,0,0,1,1015.034,573.353Z" transform="translate(-472.78 -266.803)" fill="#28272e"/>
  <path id="Path_10010" data-name="Path 10010" d="M1018.335,798.022H906.091a.591.591,0,0,1,0-1.182h112.244a.591.591,0,0,1,0,1.182Z" transform="translate(-431.121 -385.861)" fill="#ccc"/>
  <path id="Path_10011" data-name="Path 10011" d="M490.54,665.887h7.243l3.445-27.935H490.539Z" transform="translate(-200.749 -261.076)" fill="#a0616a"/>
  <path id="Path_10012" data-name="Path 10012" d="M589.914,782.4h14.264a9.09,9.09,0,0,1,9.09,9.09v.3H589.914Z" transform="translate(-301.97 -379.949)" fill="#2f2e41"/>
  <path id="Path_10013" data-name="Path 10013" d="M441.54,665.887h7.243l3.445-27.935H441.539Z" transform="translate(-180.696 -261.076)" fill="#a0616a"/>
  <path id="Path_10014" data-name="Path 10014" d="M540.914,782.4h14.264a9.089,9.089,0,0,1,9.09,9.09v.295H540.914Z" transform="translate(-281.917 -379.949)" fill="#2f2e41"/>
  <circle id="Ellipse_608" data-name="Ellipse 608" cx="14.51" cy="14.51" r="14.51" transform="translate(276.727 182.388)" fill="#a0616a"/>
  <path id="Path_10015" data-name="Path 10015" d="M581.682,691.555h-13.44a2.658,2.658,0,0,1-2.658-2.691l.781-63.82a.886.886,0,0,0-1.766-.118l-7.822,64.292a2.661,2.661,0,0,1-2.639,2.337H540.569a2.658,2.658,0,0,1-2.65-2.866l8.96-114.652.244-.027,42.906-4.634-5.691,119.645a2.655,2.655,0,0,1-2.656,2.532Z" transform="translate(-280.688 -292.774)"/>
  <path id="Path_10016" data-name="Path 10016" d="M552.054,539.6a2.656,2.656,0,0,1-2.649-2.575c-.234-7.25-.636-32.334,4.03-50.749a24.176,24.176,0,0,1,22.326-18.218h0a24.327,24.327,0,0,1,23.96,15.374c7.843,19.91,15.252,44.452,6.014,48.3-12.108,5.044-44.025,7.293-53.519,7.862Q552.135,539.6,552.054,539.6Z" transform="translate(-285.341 -251.293)" fill="#555a5d"/>
  <path id="Path_10017" data-name="Path 10017" d="M642.913,402.361a6.214,6.214,0,0,0,.736.646l-1.523,29.258-6.335,3.244,3.645,10.2,11.774-4.652a4.726,4.726,0,0,0,2.969-4.833l-3.084-33.189a6.2,6.2,0,1,0-8.181-.675Z" transform="translate(-320.745 -220.128)" fill="#a0616a"/>
  <path id="Path_10018" data-name="Path 10018" d="M632.515,460.865l4.457,12.665a2.658,2.658,0,0,1-2,3.492l-13.142,2.545a7.383,7.383,0,1,1-4.861-13.943l11.8-6.228a2.658,2.658,0,0,1,3.748,1.469Z" transform="translate(-311.014 -247.639)" fill="#555a5d"/>
  <path id="Path_10019" data-name="Path 10019" d="M533.642,402.361a6.212,6.212,0,0,1-.736.646l1.523,29.258,6.335,3.244-3.645,10.2-11.774-4.652a4.726,4.726,0,0,1-2.969-4.833l3.084-33.189a6.2,6.2,0,1,1,8.181-.675Z" transform="translate(-274.322 -220.128)" fill="#a0616a"/>
  <path id="Path_10020" data-name="Path 10020" d="M540.935,459.272a2.656,2.656,0,0,1,2.21.124l11.8,6.228a7.383,7.383,0,1,1-4.861,13.943l-13.142-2.545a2.658,2.658,0,0,1-2-3.492l4.457-12.665A2.655,2.655,0,0,1,540.935,459.272Z" transform="translate(-279.411 -247.639)" fill="#555a5d"/>
  <path id="Path_10021" data-name="Path 10021" d="M587.676,418.926a9.537,9.537,0,0,1,5.341-8.96c4.411-2.277,7.181-7.133,5.967-11.568-1.554-5.677-9.28-9.358-15.54-7.405a28.7,28.7,0,0,0-4.88,2.268l-4.09,2.192a42.377,42.377,0,0,0-5.042,2.976,16.728,16.728,0,0,0-6.658,15.673c.805,5.771,4.585,11.063,9.758,14.687a16.5,16.5,0,0,0,6.687,2.972,8.885,8.885,0,0,0,7.053-1.6c2.833-2.41,2.541-6.446,1.624-9.816A7.144,7.144,0,0,1,587.676,418.926Z" transform="translate(-290.803 -219.555)" fill="#2f2e41"/>
  <path id="Path_10022" data-name="Path 10022" d="M610.335,798.022H498.091a.591.591,0,0,1,0-1.182H610.335a.591.591,0,0,1,0,1.182Z" transform="translate(-264.15 -385.861)" fill="#ccc"/>
  <path id="Path_10023" data-name="Path 10023" d="M288.505,560.657l-92.617,38a6.489,6.489,0,0,1-8.457-3.537L159.08,526.008a4.754,4.754,0,0,1,2.591-6.2l95.748-39.281a4.836,4.836,0,0,1,6.3,2.636l28.32,69.033a6.489,6.489,0,0,1-3.537,8.457Z" transform="translate(-125.509 -256.266)" fill="#e6e6e6"/>
  <path id="Path_10024" data-name="Path 10024" d="M205.444,596.484l80.987-33.225a6.285,6.285,0,0,0,3.429-8.2l-22.894-55.8a6.285,6.285,0,0,0-8.2-3.429l-80.988,33.225a6.285,6.285,0,0,0-3.429,8.2l22.894,55.8A6.285,6.285,0,0,0,205.444,596.484Z" transform="translate(-131.711 -262.479)" fill="#fff"/>
  <rect id="Rectangle_3279" data-name="Rectangle 3279" width="1.287" height="0.214" transform="translate(133.618 252.481) rotate(-22.306)" fill="#e6e6e6"/>
  <path id="Path_10025" data-name="Path 10025" d="M273.034,530.413l-2.405.987-.081-.2,2.405-.987Zm-4.811,1.974-2.405.987-.081-.2,2.405-.987Zm-4.811,1.974-2.405.987-.081-.2,2.405-.987Zm-4.811,1.974-2.405.987-.081-.2,2.405-.987Zm-4.811,1.974-2.405.987-.081-.2,2.405-.987Zm-4.811,1.974-2.405.987-.081-.2,2.405-.987Zm-4.811,1.974-2.405.987-.081-.2,2.405-.987Zm-4.811,1.974-2.405.987-.081-.2,2.405-.987Zm-4.811,1.974-2.405.987-.081-.2,2.405-.987Zm-4.811,1.974-2.405.987-.081-.2,2.405-.987Zm-4.811,1.974-2.405.987-.081-.2,2.405-.987Zm-4.811,1.974-2.405.987-.081-.2,2.405-.987ZM215.3,554.1l-2.405.987-.081-.2,2.405-.987Zm-4.811,1.974-2.405.987-.081-.2,2.405-.987Zm-4.811,1.974-2.405.987-.081-.2,2.405-.987Zm-4.811,1.974-2.405.987-.081-.2,2.405-.987Z" transform="translate(-141.74 -276.747)" fill="#e6e6e6"/>
  <rect id="Rectangle_3280" data-name="Rectangle 3280" width="1.287" height="0.214" transform="translate(53.049 285.534) rotate(-22.306)" fill="#e6e6e6"/>
  <rect id="Rectangle_3281" data-name="Rectangle 3281" width="1.287" height="0.214" transform="translate(102.096 286.975) rotate(-22.306)" fill="#e6e6e6"/>
  <path id="Path_10026" data-name="Path 10026" d="M246.768,588.777l-2.37.972-.081-.2,2.37-.972Zm-4.739,1.944-2.37.972-.081-.2,2.37-.972Zm-4.739,1.944-2.37.972-.081-.2,2.37-.972Zm-4.739,1.944-2.37.972-.081-.2,2.37-.972Zm-4.739,1.944-2.37.972-.081-.2,2.37-.972Zm-4.739,1.944-2.37.972-.081-.2,2.37-.972Zm-4.739,1.944-2.37.972-.081-.2,2.37-.972Zm-4.739,1.944-2.37.972-.081-.2,2.37-.972Z" transform="translate(-146.96 -300.632)" fill="#e6e6e6"/>
  <rect id="Rectangle_3282" data-name="Rectangle 3282" width="1.287" height="0.214" transform="translate(60.62 303.99) rotate(-22.306)" fill="#e6e6e6"/>
  <rect id="Rectangle_3283" data-name="Rectangle 3283" width="1.287" height="0.214" transform="translate(82.459 305.231) rotate(-22.306)" fill="#e6e6e6"/>
  <path id="Path_10027" data-name="Path 10027" d="M229.592,619.729l-2.438,1-.081-.2,2.438-1Zm-4.876,2-2.438,1-.081-.2,2.438-1Zm-4.876,2-2.438,1-.081-.2,2.438-1Z" transform="translate(-149.489 -313.299)" fill="#e6e6e6"/>
  <rect id="Rectangle_3284" data-name="Rectangle 3284" width="1.287" height="0.214" transform="translate(64.202 312.721) rotate(-22.306)" fill="#e6e6e6"/>
  <rect id="Rectangle_3285" data-name="Rectangle 3285" width="1.287" height="0.214" transform="translate(88.572 320.132) rotate(-22.306)" fill="#e6e6e6"/>
  <path id="Path_10028" data-name="Path 10028" d="M239.94,644.953l-2.438,1-.081-.2,2.438-1Zm-4.876,2-2.438,1-.081-.2,2.438-1Zm-4.876,2-2.438,1-.081-.2,2.438-1Z" transform="translate(-153.724 -323.621)" fill="#e6e6e6"/>
  <rect id="Rectangle_3286" data-name="Rectangle 3286" width="1.287" height="0.214" transform="translate(70.315 327.622) rotate(-22.306)" fill="#e6e6e6"/>
  <path id="Path_10029" data-name="Path 10029" d="M233.132,602.628l68.631-28.156a6.782,6.782,0,0,0,3.7-8.839l-13.867-33.8-.134.06-16.842,40.27-12.491-5.222a1.62,1.62,0,0,0-1.439.09,1.726,1.726,0,0,0-.716.846l-8.827,21.1-9.133-3.818a1.626,1.626,0,0,0-2.128.873C239.825,586.178,234.193,599.995,233.132,602.628Z" transform="translate(-155.96 -277.409)" fill="#c40000"/>
  <path id="Path_10030" data-name="Path 10030" d="M232.638,602.677l-.2-.083,7.062-16.888a1.825,1.825,0,0,1,2.385-.979l8.953,3.744,8.776-20.987a1.825,1.825,0,0,1,2.385-.979l12.311,5.148,16.929-40.481.2.083-17.011,40.679L261.919,566.7a1.609,1.609,0,0,0-2.1.864l-8.859,21.185-9.15-3.827a1.611,1.611,0,0,0-2.1.864Z" transform="translate(-155.677 -277.139)" fill="#3f3d56"/>
  <circle id="Ellipse_609" data-name="Ellipse 609" cx="1.501" cy="1.501" r="1.501" transform="translate(82.189 303.341)" fill="#3f3d56"/>
  <circle id="Ellipse_610" data-name="Ellipse 610" cx="1.501" cy="1.501" r="1.501" transform="translate(101.826 285.084)" fill="#3f3d56"/>
  <circle id="Ellipse_611" data-name="Ellipse 611" cx="1.501" cy="1.501" r="1.501" transform="translate(132.401 250.537)" fill="#3f3d56"/>
  <path id="Path_10031" data-name="Path 10031" d="M180.873,577.931a5.964,5.964,0,0,0,2.133-8.892l4.459-43.6h-9.637l-3.544,42.574a6,6,0,0,0,6.589,9.919Z" transform="translate(-131.012 -274.792)" fill="#ffb8b8"/>
  <circle id="Ellipse_612" data-name="Ellipse 612" cx="13.635" cy="13.635" r="13.635" transform="translate(45.075 199.315)" fill="#ffb8b8"/>
  <path id="Path_10032" data-name="Path 10032" d="M197.556,536.879a2.493,2.493,0,0,1-2.4-1.831c-1.092-3.969-3.934-10.679-8.447-19.946a16.522,16.522,0,0,1,9.382-22.811h0a16.514,16.514,0,0,1,21.221,10.52c3.5,10.966,3.329,22.713,3.094,27.254a2.5,2.5,0,0,1-1.962,2.312l-20.349,4.444A2.479,2.479,0,0,1,197.556,536.879Z" transform="translate(-136.28 -260.841)" fill="#8d8d8d"/>
  <path id="Path_10033" data-name="Path 10033" d="M137.081,668.24h6.806l3.238-26.252H137.08Z" transform="translate(-56.099 -262.728)" fill="#ffb8b8"/>
  <path id="Path_10034" data-name="Path 10034" d="M0,0H21.39V8.264H8.264A8.264,8.264,0,0,1,0,0Z" transform="translate(100.912 411.831) rotate(179.997)" fill="#2f2e41"/>
  <path id="Path_10035" data-name="Path 10035" d="M21.882,655.559l5.964,3.279,15.485-21.443-8.8-4.84Z" transform="translate(-8.955 -258.868)" fill="#ffb8b8"/>
  <path id="Path_10036" data-name="Path 10036" d="M0,0H21.39V8.264H8.264A8.264,8.264,0,0,1,0,0Z" transform="translate(27.349 411.831) rotate(-151.199)" fill="#2f2e41"/>
  <path id="Path_10037" data-name="Path 10037" d="M196.462,677.336a2.5,2.5,0,0,1-2.475-2.177l-8.512-65.589a1.388,1.388,0,0,0-2.592-.492l-35.473,64.357a2.512,2.512,0,0,1-3.077,1.129L136.6,671.62a2.5,2.5,0,0,1-1.424-3.276l24.573-60.364a1.925,1.925,0,0,0,.125-.478c3.328-25.76,11.8-38.86,14.312-42.261a1.934,1.934,0,0,0,.275-1.761l-.346-1.038a2.5,2.5,0,0,1,.481-2.43c9.066-10.326,24.868-4.691,25.027-4.633l.079.029.05.068c17.719,24.3,11.167,103.225,9.674,118.8a2.491,2.491,0,0,1-2.295,2.248l-10.477.807C196.591,677.334,196.526,677.336,196.462,677.336Z" transform="translate(-115.798 -286.395)" fill="#353738"/>
  <path id="Path_10038" data-name="Path 10038" d="M266.7,485.322a5.844,5.844,0,0,0-.133.91L242.718,499.99l-5.8-3.337-6.179,8.09,9.687,6.9a4.441,4.441,0,0,0,5.328-.13l24.591-19.4a5.827,5.827,0,1,0-3.65-6.8Z" transform="translate(-154.982 -256.534)" fill="#ffb8b8"/>
  <path id="Path_10039" data-name="Path 10039" d="M233.805,506.553l-7.707,9.989a2.5,2.5,0,0,1-3.777.207l-8.725-9.061a6.938,6.938,0,1,1,8.508-10.961l10.943,6.119a2.5,2.5,0,0,1,.758,3.706Z" transform="translate(-146.867 -262.446)" fill="#8d8d8d"/>
  <path id="Path_10040" data-name="Path 10040" d="M189.074,527.742,176.658,525.5a2.5,2.5,0,0,1-1.923-3.258l4.025-11.917a6.938,6.938,0,0,1,13.647,2.506l-.393,12.532a2.5,2.5,0,0,1-2.941,2.379Z" transform="translate(-132.008 -266.28)" fill="#8d8d8d"/>
  <path id="Path_10041" data-name="Path 10041" d="M171.541,444.664c3.5,2.4,8.106,4.864,11.685,2.31a6.513,6.513,0,0,0,2.138-7.508c-1.714-4.9-6.423-7.059-10.925-8.713-5.854-2.15-12.227-3.861-18.27-2.321s-11.383,7.391-10.293,13.53c.877,4.938,5.535,9.046,4.874,14.017-.665,5-6.292,7.636-11.259,8.531s-10.526,1.181-14.1,4.749c-4.554,4.551-3.417,12.687.868,17.492s10.751,6.984,17.017,8.465c8.3,1.962,17.281,2.993,25.166-.263s14.02-12.021,11.736-20.24c-.965-3.472-3.238-6.406-5.434-9.262s-4.421-5.843-5.258-9.348a9.718,9.718,0,0,1,1.755-8.5,2.463,2.463,0,0,0,.33-2.879Z" transform="translate(-110.673 -234.851)"/>
  <path id="Path_10042" data-name="Path 10042" d="M215.335,798.022H103.091a.591.591,0,0,1,0-1.182H215.335a.591.591,0,1,1,0,1.182Z" transform="translate(-102.5 -385.861)" fill="#ccc"/>
</svg>
