<svg xmlns="http://www.w3.org/2000/svg" width="588.696" height="419.233" viewBox="0 0 588.696 419.233">
  <g id="Group_6385" data-name="Group 6385" transform="translate(-626.412 -496.673)">
    <path id="Path_10088" data-name="Path 10088" d="M330.91-52.424C404.745-19.4,383.023,100.461,383.023,170.46S209.369,285.733,138.085,285.733-29.116,136.387,21.646,57.412C46.113,19.346,101.69-15.215,161.3-37.23,224.679-60.635,292.664-69.532,330.91-52.424Z" transform="translate(619 558)" fill="#ffe0e0"/>
    <g id="undraw_personal_file_re_5joy" transform="translate(751.737 564.303)">
      <path id="Path_10061" data-name="Path 10061" d="M524.382,225.892c-5.646,9.726,4.985,26.113-5.729,29.515l.883-.883c6.467-7.955-7.05-24.791-.583-32.746a19.432,19.432,0,0,0,2.569-3.819" transform="translate(-338.958 -191.977)" fill="#2f2e41"/>
      <path id="Path_10062" data-name="Path 10062" d="M594.728,424.567a6.777,6.777,0,0,0-6.58-8.042l-13.955-40.543-7.724,9.846,14.754,37.883a6.813,6.813,0,0,0,13.5.857Z" transform="translate(-356.433 -247.971)" fill="#ffb8b8"/>
      <path id="Path_10063" data-name="Path 10063" d="M515.23,294.757s-.434-14.676,12.69-6.269,41.7,87.164,41.7,87.164l-14.22,7.693-32.281-72.071Z" transform="translate(-338.276 -216.048)" fill="#c40000"/>
      <path id="Path_10064" data-name="Path 10064" d="M322.8,497.616l-6.553,2.8-13.92-23.944L312,472.338Z" transform="translate(-107.125 -167.368)" fill="#ffb6b6"/>
      <path id="Path_10065" data-name="Path 10065" d="M574.682,696.118l-4.7,2.008-2.735-4.079-.252,5.355-12.465,5.326a3.047,3.047,0,0,1-3.775-4.427l7.016-11.128-1.917-4.486,10.737-3.849Z" transform="translate(-350.699 -355.994)" fill="#2f2e41"/>
      <path id="Path_10066" data-name="Path 10066" d="M169.895,508.718l-7.118-.348-2.046-27.621,10.506.513Z" transform="translate(-56.953 -170.348)" fill="#ffb6b6"/>
      <path id="Path_10067" data-name="Path 10067" d="M407.371,711.011l-5.1-.25-.676-4.864-2.569,4.705-13.539-.662a3.047,3.047,0,0,1-1.458-5.632l11.177-6.939.238-4.872,11.339,1.235Z" transform="translate(-291.276 -360.125)" fill="#2f2e41"/>
      <path id="Path_10068" data-name="Path 10068" d="M739.663,649.455a2.3,2.3,0,0,0,1.63-4l-.164-.625a6.182,6.182,0,0,1,11.46-.217c2.788,6.357,6.38,12.931,4.692,19.979,11.36-24.682,7.126-55.209-10.208-76.059a18.86,18.86,0,0,1-9.694-12.535c2.352.772,5.256-1.162,3.47-3.615-.773-.936-1.553-1.865-2.326-2.8,8.813-9.567,19.564,5.235,9.885,18.126a73.778,73.778,0,0,1,8.409,12.881,31.02,31.02,0,0,1,1.715-14.425c1.732-4.293,5.02-7.926,7.91-11.65a6.368,6.368,0,0,1,11.389,3.182c-3.273,1.11-3.654,5.856.108,6.47a31.757,31.757,0,0,1-17.26,25.235,74.066,74.066,0,0,1,4.342,30.918c1.572-12.275,14.7-15.375,23.853-20.335a3.583,3.583,0,0,1,5.5,3.577,20.7,20.7,0,0,0-3.609,1.948,3.128,3.128,0,0,0,1.507,5.7c-4.527,11.518-16.44,19.337-28.75,19.411a76.146,76.146,0,0,1-4.972,14.98l-18.271.174c-.068-.2-.128-.411-.189-.614a20.759,20.759,0,0,0,5.053-.349c-4.525-5.255-8.011-7.925-5.477-15.345Z" transform="translate(-416.993 -315.486)" fill="#c40000"/>
      <path id="Path_10069" data-name="Path 10069" d="M426.7,419.991s-14.475,39.448-14.709,43.863-4.362,60.238-7.824,63.482-14.047,53.531-5.811,57.464,34.22-2.583,34.22-2.583l9.039-59.4,3.071-45.509s9.348,107.164,26.3,106.849,37.617-6.772,37.617-6.772l-23.732-64.9s.336-76.833-5.165-92.329S426.7,419.991,426.7,419.991Z" transform="translate(-295.778 -261.168)" fill="#2f2e41"/>
      <path id="Path_10070" data-name="Path 10070" d="M484.721,266.293l-19.385,1.776-3.123,9.587s-16.223,8.909-12.631,12.957-.8,31.325-.8,31.325l.993,22.142s-1.066,15.34-4.258,18.875-11.541,12.2-5.641,8.055c20.686-14.539,56.843-2.271,56.843-2.271L491.55,337.1s11.732-51.8,7.1-56.172-9-4.927-9-4.927Z" transform="translate(-310.846 -209.104)" fill="#c40000"/>
      <path id="Path_10071" data-name="Path 10071" d="M348.251,399.545a6.776,6.776,0,0,0,5.1-9.053l32.7-27.739-11.98-3.616L344.14,386.653a6.813,6.813,0,0,0,4.111,12.892Z" transform="translate(-276.238 -242.002)" fill="#ffb8b8"/>
      <path id="Path_10072" data-name="Path 10072" d="M435.817,303.2s6.442-13.194-8.98-10.94S352.931,354.5,352.931,354.5l9.787,12.868L421.825,315Z" transform="translate(-280.768 -218.213)" fill="#6c63ff"/>
      <path id="Path_10073" data-name="Path 10073" d="M408.1,273.312l-61.146,78.335a6.509,6.509,0,0,0,1.124,9.121c14.2,34.477,56.681,60.044,106.654,83.25a6.5,6.5,0,0,0,9.121-1.124L525,364.56a6.5,6.5,0,0,0-1.124-9.121c-41.937-23.68-77.982-51.116-106.654-83.25a6.509,6.509,0,0,0-9.121,1.124Z" transform="translate(-278.163 -210.707)" fill="#e6e6e6"/>
      <path id="Path_10074" data-name="Path 10074" d="M523.68,365.414l-18.612,23.845a69.675,69.675,0,0,1-97.509,12.017L355.4,360.562a3.7,3.7,0,0,1-.645-5.189l59.085-75.7a3.7,3.7,0,0,1,5.191-.635c26.385,34.071,61.7,60.585,104.011,81.187a3.7,3.7,0,0,1,.639,5.185Z" transform="translate(-281.138 -213.344)" fill="#fff"/>
      <path id="Path_10075" data-name="Path 10075" d="M431.932,339.168,419.811,354.7a1.97,1.97,0,0,1-3.106-2.424l12.121-15.529a1.97,1.97,0,1,1,3.106,2.424Z" transform="translate(-303.218 -233.799)" fill="#ccc"/>
      <path id="Path_10076" data-name="Path 10076" d="M459.189,321.328l-26.619,34.1a1.97,1.97,0,1,1-3.106-2.424l26.619-34.1a1.97,1.97,0,1,1,3.106,2.424Z" transform="translate(-307.739 -227.477)" fill="#ccc"/>
      <circle id="Ellipse_620" data-name="Ellipse 620" cx="12.975" cy="12.975" r="12.975" transform="translate(93.075 124.783)" fill="#c40000"/>
      <path id="Path_10077" data-name="Path 10077" d="M458.113,363.162,425.42,405.047a1.983,1.983,0,0,1-3.106-2.424l32.694-41.885a1.983,1.983,0,0,1,3.106,2.424Z" transform="translate(-305.25 -242.359)" fill="#ccc"/>
      <path id="Path_10078" data-name="Path 10078" d="M483.861,348.351l-45.632,58.461a1.983,1.983,0,0,1-3.106-2.424l45.632-58.461a1.983,1.983,0,0,1,3.106,2.424Z" transform="translate(-309.789 -237.111)" fill="#ccc"/>
      <path id="Path_10079" data-name="Path 10079" d="M490.717,388.611,458.023,430.5a1.983,1.983,0,0,1-3.106-2.424l32.694-41.885a1.983,1.983,0,0,1,3.106,2.424Z" transform="translate(-316.802 -251.377)" fill="#ccc"/>
      <path id="Path_10080" data-name="Path 10080" d="M557.717,396.611,525.023,438.5a1.983,1.983,0,0,1-3.106-2.424l32.694-41.885a1.983,1.983,0,0,1,3.106,2.424Z" transform="translate(-340.543 -254.212)" fill="#c40000"/>
      <path id="Path_10081" data-name="Path 10081" d="M516.465,373.8l-45.632,58.461a1.983,1.983,0,0,1-3.106-2.424l45.632-58.461a1.983,1.983,0,0,1,3.106,2.424Z" transform="translate(-321.341 -246.129)" fill="#ccc"/>
      <path id="Path_10082" data-name="Path 10082" d="M460.126,217.395a19.255,19.255,0,1,0,33.119-13.356l-.092-.092c-.154-.162-.308-.324-.47-.478l-.005,0a.008.008,0,0,1,0-.005c-.2-.185-.4-.37-.609-.547a19.25,19.25,0,0,0-31.941,14.48Z" transform="translate(-318.752 -184.954)" fill="#2f2e41"/>
      <circle id="Ellipse_621" data-name="Ellipse 621" cx="16.147" cy="16.147" r="16.147" transform="translate(149.228 20.749)" fill="#ffb8b8"/>
      <path id="Path_10083" data-name="Path 10083" d="M470.366,227.948c-1.578-7.112.7-15.081,5.677-19.829a18.207,18.207,0,0,1,19.014-3.685c.406.164.812.343,1.211.531l.185.087v.027l.108.078a.618.618,0,0,0,.267.147,9.954,9.954,0,0,1,7.511,3.131c2.5,2.715,3.681,7.1,3.32,12.356l-.011.164-.14.087a55.186,55.186,0,0,1-5.887,3.246c-7.088,3.333-13.56,3.951-19.779,1.886l-.114-.038-2.61-4.375c-.536,3.017-.25,13.026-3.325,13.568l-5.358-7.08Z" transform="translate(-322.205 -186.75)" fill="#2f2e41"/>
      <path id="Path_10084" data-name="Path 10084" d="M407.248,232.976c5.495-2.836-1.572-13.129-.152-19.147s11.646-7.954,12.3-14.1,2.184-12.491,6.241-17.157c2.593-2.981,6.413-5.183,10.347-4.809a9.3,9.3,0,0,1,8.154,11.488,2.86,2.86,0,0,1,4.736.562,2.9,2.9,0,0,1-2.429,3.69c-2.17,2.679-4.654,5.523-8.054,6.064a3.668,3.668,0,0,1-3.125-.721,1.9,1.9,0,0,1,.087-2.877c-4.272,1.7-6.776,6.316-7.41,10.868s.243,9.159.821,13.719.827,9.357-.961,13.591a17.306,17.306,0,0,1-12.284,9.739,23.556,23.556,0,0,1-15.765-2.506,37.271,37.271,0,0,1-12.084-10.732C393.3,234.647,401.1,236.147,407.248,232.976Z" transform="translate(-293.076 -177.719)" fill="#2f2e41"/>
      <path id="Path_10085" data-name="Path 10085" d="M481.382,228.892c-5.646,9.726,4.985,26.113-5.729,29.515l.883-.883c6.467-7.955-7.05-24.791-.583-32.746a19.433,19.433,0,0,0,2.57-3.819" transform="translate(-323.721 -193.041)" fill="#2f2e41"/>
      <path id="Path_10086" data-name="Path 10086" d="M471.8,228.569a32.844,32.844,0,0,1,25.286-21.974c.023-.008.1-.038.2-.085.062-.039.139-.077.216-.116-.231-.131-.454-.246-.686-.362l-.005,0a.007.007,0,0,1,0-.005c-.2-.185-.4-.37-.608-.547l-.585.023S475.048,202.243,471.8,228.569Z" transform="translate(-322.89 -187.518)" fill="#c40000"/>
      <path id="Path_10087" data-name="Path 10087" d="M241.165,720.67a.766.766,0,0,0,.768.768H703.768a.768.768,0,1,0,0-1.537H241.933a.766.766,0,0,0-.768.768Z" transform="translate(-241.165 -369.835)" fill="#ccc"/>
    </g>
  </g>
</svg>
