<svg xmlns="http://www.w3.org/2000/svg" width="12.316" height="16.019" viewBox="0 0 12.316 16.019">
  <path id="Path_9752" data-name="Path 9752" d="M141.754,6.561a1.39,1.39,0,0,0-.166.011l-.073.011a1.6,1.6,0,0,0-.825.44,3.184,3.184,0,0,0-.781,1.441,5.682,5.682,0,0,0,.285,3.338,10.118,10.118,0,0,0,.736,1.625.346.346,0,0,0,.376.23l2.223-.334a.342.342,0,0,0,.282-.293,8.714,8.714,0,0,0-.125-4.814,2.273,2.273,0,0,0-1.877-1.656h-.055Zm8.434,4.6a2.274,2.274,0,0,0-1.961,1.556,8.717,8.717,0,0,0-.377,4.8.342.342,0,0,0,.266.307l2.2.45a.346.346,0,0,0,.387-.211,10.142,10.142,0,0,0,.82-1.585,5.682,5.682,0,0,0,.46-3.319,3.182,3.182,0,0,0-.7-1.48,1.6,1.6,0,0,0-.8-.482l-.073-.015a1.385,1.385,0,0,0-.22-.022Zm-6.25,3.034a.333.333,0,0,0-.062,0l-2.452.369a.344.344,0,0,0-.291.347,7.613,7.613,0,0,0-.044,1.127,4.052,4.052,0,0,0,.129.928,1.33,1.33,0,0,0,.462.753,2.195,2.195,0,0,0,1.59.313,2.1,2.1,0,0,0,1.42-.769,1.291,1.291,0,0,0,.189-.864,3.978,3.978,0,0,0-.2-.919,7.573,7.573,0,0,0-.43-1.048.349.349,0,0,0-.315-.241Zm3.841,4.46a.349.349,0,0,0-.327.224,7.6,7.6,0,0,0-.485,1.024,3.982,3.982,0,0,0-.243.907,1.289,1.289,0,0,0,.143.872,2.1,2.1,0,0,0,1.378.842,2.2,2.2,0,0,0,1.6-.23,1.332,1.332,0,0,0,.5-.728,4.056,4.056,0,0,0,.178-.92,7.623,7.623,0,0,0,.015-1.127.345.345,0,0,0-.272-.362l-2.43-.5a.324.324,0,0,0-.062-.007Z" transform="translate(-139.764 -6.561)" fill="#fff"/>
</svg>
