<svg id="undraw_warning_re_eoyh" xmlns="http://www.w3.org/2000/svg" width="283.49" height="226" viewBox="0 0 283.49 226">
  <path id="Path_10165" data-name="Path 10165" d="M441.4,362.128a1.226,1.226,0,0,0,.888-2.126l-.084-.334.033-.08a3.14,3.14,0,0,1,4.091-1.683c5.033,2.081-.281,6.862.119,10.1.14,1.117,4.514,1.178,4.267,2.274a39.055,39.055,0,0,0,3.547-16.222,37.678,37.678,0,0,0-.235-4.205q-.194-1.717-.539-3.409a39.509,39.509,0,0,0-7.84-16.742c-1.871-1.022-.73-2.621-1.673-4.536-.339-.691-3.36-.706-3.486-1.464.135.018,2.088-2.011,1.443-3.013a1.662,1.662,0,0,1,.253-2.064,1.73,1.73,0,0,0,.15-.176c1.611-2.185,3.831-1.8,4.991,1.164,2.476,1.249,2.5,3.321.982,5.315-.966,1.268-1.1,2.984-1.946,4.342.087.112.178.22.265.331a39.765,39.765,0,0,1,4.152,6.574,16.53,16.53,0,0,1,.984-7.678c.951-2.3,2.739-4.226,4.306-6.212a3.376,3.376,0,0,1,6.01,1.707l.009.086q-.348.2-.68.417a1.663,1.663,0,0,0,.672,3.026l.034.005c-.084.834-3.043,3.462-3.253,4.275,2,7.731.5,8.752-5.655,8.881l-.323.46a40.617,40.617,0,0,1,2.1,10.026,38.492,38.492,0,0,1-.026,6.215l.01-.073a10.172,10.172,0,0,1,3.47-5.875c2.671-2.2,6.447-3.006,9.329-4.771a1.909,1.909,0,0,1,2.924,1.856l-.012.077a11.17,11.17,0,0,0-1.253.6q-.348.2-.681.417a1.663,1.663,0,0,0,.673,3.026l.034.005.07.01c-.736,1.749-7.746,4.215-9.03,5.615-1.248,6.753-.635,6.552-6.382,4.587h0a40.57,40.57,0,0,1-2.723,7.958l-9.737,0c-.035-.108-.066-.22-.1-.328a11.06,11.06,0,0,0,2.694-.161c-.723-.886-1.445-1.779-2.168-2.666a.612.612,0,0,1-.045-.052l-.011-.014-1-3.3a16.628,16.628,0,0,1,.383-2.172h0Z" transform="translate(-202.483 -145.742)" fill="#f7c3c3"/>
  <path id="Path_10166" data-name="Path 10166" d="M168.239,329.4l-86.158.03A11.947,11.947,0,0,1,71.706,311.47L114.758,233.1a11.974,11.974,0,0,1,20.738-.007l43.111,78.353A11.973,11.973,0,0,1,168.239,329.4h0ZM71.168,317.456c0,1.872,9.507-2.161,10.492-.457,1.97,3.41-3.517,11.348.421,11.347,0,0,93.621-2.068,95.589-5.479a10.781,10.781,0,0,0,0-10.893l-43.111-78.353a10.777,10.777,0,0,0-9.43-5.433c-3.936,0-53.957,87.4-53.957,89.268Z" transform="translate(-32.217 -104.397)" fill="#3f3d56"/>
  <path id="Path_10167" data-name="Path 10167" d="M253.5,402.754c-1.08,2.162,49.5,1.5,50.1,1.5,0,0,14.217-.314,14.516-.832a1.637,1.637,0,0,0,0-1.654l-6.547-11.9a1.636,1.636,0,0,0-1.432-.825.206.206,0,0,0-.109.064c-8.733,7.8-19.5,12.964-31.207,13.138-12.453.185-25.25.373-25.319.51Z" transform="translate(-116.522 -178.835)" fill="#3f3d56"/>
  <path id="Path_10168" data-name="Path 10168" d="M0,416.451a.641.641,0,0,0,.643.643l282.2-.1a.643.643,0,1,0,0-1.286l-282.2.1a.641.641,0,0,0-.643.643Z" transform="translate(0 -191.094)" fill="#ccc"/>
  <g id="Group_6426" data-name="Group 6426" transform="translate(201.247 203.386)">
    <path id="Path_10169" data-name="Path 10169" d="M397.737,395.268H392.85l-2.331-18.849,7.213,0Z" transform="translate(-380.761 -376.418)" fill="#a0616a"/>
    <path id="Path_10170" data-name="Path 10170" d="M372.692,406.417h0a4.2,4.2,0,0,0-.232,1.382h0a1.659,1.659,0,0,0,1.659,1.658l15.135-.005a1.132,1.132,0,0,0,1.131-1.132v-.63a4.838,4.838,0,0,0-.794-4.228s-1.915,1.828-4.779-1.033l-.845-1.529-6.109,4.471-3.387.418c-.741.091-1.4-.014-1.779.628h0Z" transform="translate(-372.46 -387.672)" fill="#2f2e41"/>
  </g>
  <g id="Group_6427" data-name="Group 6427" transform="translate(183.577 188.259)">
    <path id="Path_10171" data-name="Path 10171" d="M358.244,366.277l-4.629,1.566-8.245-17.11,6.832-2.312Z" transform="translate(-342.336 -348.421)" fill="#a0616a"/>
    <path id="Path_10172" data-name="Path 10172" d="M339.768,383.689h0a4.2,4.2,0,0,0,.223,1.383h0a1.659,1.659,0,0,0,2.1,1.039l14.336-4.852a1.132,1.132,0,0,0,.709-1.435l-.2-.6a4.838,4.838,0,0,0-2.106-3.751s-1.229,2.345-4.858.552l-1.29-1.178-4.355,6.192-3.075,1.481c-.673.324-1.329.435-1.484,1.165h0Z" transform="translate(-339.756 -360.57)" fill="#2f2e41"/>
  </g>
  <path id="Path_10173" data-name="Path 10173" d="M337.641,177.061l-9.479,31.393-11.19,28.238,17.716,40.326,6.569-2.922-7.86-37.044,16.484-25.137,7.692,78.472,6.57-.367,8.91-94.72,1.27-20.623Z" transform="translate(-145.706 -80.295)" fill="#2f2e41"/>
  <path id="Path_10174" data-name="Path 10174" d="M381.461,50.385l-13.869,2.56L366.5,59.15l-8.394,4.018-4.364,45.626s-7.3,9.492-1.456,12.41l37.228-3.663s1.823-6.749,0-7.389-1.831-16.76-1.831-16.76l8.383-33.157-12.411-4.376-2.192-5.474Z" transform="translate(-160.897 -23.161)" fill="#e6e6e6"/>
  <circle id="Ellipse_628" data-name="Ellipse 628" cx="11.2" cy="11.2" r="11.2" transform="translate(201.184 4.705)" fill="#a0616a"/>
  <path id="Path_10175" data-name="Path 10175" d="M388.67,17.567c-.894.489-.046,2.825-.6,3.027-.646.233-3-2.446-3.029-5.447a10.18,10.18,0,0,0,0-2.422c-.263-1.409-1.07-3.07-1.817-3.026-.443.026-.875.652-.908,1.211-.045.783.716,1.091.606,1.513-.209.8-3.4,1.358-4.54,0-.892-1.064-.208-2.931-.606-3.027-.294-.07-.609.958-1.815,2.119-.454.438-1.13,1.089-1.513.909-.553-.26-.151-2.094-.3-2.119a14.954,14.954,0,0,1-.907,2.422c-.9,1.481-2.763,2.623-3.632,2.12-.532-.308-.574-1.165-.606-1.816-.067-1.371-2.06-4.526-1.545-5.993,1.049-2.986,2.848-.881,3.661-1.878,1.1-1.349,2.089-.624,3.934-2.12,1.8-1.462,1.819-2.931,3.026-3.028,1.087-.087,1.474,1.073,2.725.907,1.059-.14,1.29-1.04,2.118-.909.759.12.809.912,1.817,1.21.644.19.785-.085,1.513,0a4.355,4.355,0,0,1,2.725,1.815c.735,1,.45,1.417,1.212,2.421.657.865,2.112.5,2.659.93,1.788,1.412,2.556,4.017,2.572,6.986a21.311,21.311,0,0,1-.864,5.747c-.459,1.99-2.584,4.562-3.755,5.709-.314.308-1.2,1.171-1.816.909-.587-.248-.605-1.366-.606-1.513,0-.507.133-1.135,1.21-2.725,1.132-1.67,1.581-1.86,1.513-2.422-.121-.993-1.71-1.9-2.422-1.513h0Z" transform="translate(-168.87 0)" fill="#2f2e41"/>
  <g id="Group_6428" data-name="Group 6428" transform="translate(180.486 39.712)">
    <path id="Path_10176" data-name="Path 10176" d="M334.444,212.542c-.349,2.919.875,5.465,2.732,5.687s3.646-1.965,3.995-4.884a7.359,7.359,0,0,0-.367-3.455l1.322-12.388-5.826-.5-.685,12.265a7.358,7.358,0,0,0-1.171,3.272Z" transform="translate(-334.196 -130.272)" fill="#a0616a"/>
    <path id="Path_10177" data-name="Path 10177" d="M351.032,73.5s-3.019.043-5.017,3.946c-1.062,2.074-6.744,40.863-6.744,40.863l-5.234,31.775,8.916.045,6.948-30.092,5.845-17.453Z" transform="translate(-334.036 -73.498)" fill="#e6e6e6"/>
  </g>
  <path id="Path_10178" data-name="Path 10178" d="M411.631,204.392c-.854,2.813-.095,5.534,1.7,6.077s3.934-1.3,4.787-4.11a7.359,7.359,0,0,0,.243-3.466l3.468-11.966-5.65-1.508-2.82,11.956a7.359,7.359,0,0,0-1.725,3.017h0Z" transform="translate(-189.058 -87.073)" fill="#a0616a"/>
  <path id="Path_10179" data-name="Path 10179" d="M414.726,68.747s4.379-3.286,8.031,1.822,5.126,47.083,5.126,47.083L417.672,143.57l-7.666-2.552,7.289-31.757L404.512,85.175l10.214-16.428Z" transform="translate(-185.946 -31.123)" fill="#e6e6e6"/>
  <g id="Group_6430" data-name="Group 6430" transform="translate(78.605 128.829)">
    <circle id="Ellipse_629" data-name="Ellipse 629" cx="39.443" cy="39.443" r="39.443" fill="#c40000"/>
    <g id="Group_6429" data-name="Group 6429" transform="translate(26.328 12.767)">
      <circle id="Ellipse_630" data-name="Ellipse 630" cx="3.622" cy="3.622" r="3.622" transform="translate(9.501 43.613)" fill="#fff"/>
      <path id="Path_10180" data-name="Path 10180" d="M207.313,264.557c-.333,2.211.263,2.673.267,12.2s1.981,22.307-.255,22.308-3.053-26.369-10.815-28.7C187.383,267.621,208.39,257.4,207.313,264.557Z" transform="translate(-194.205 -262.06)" fill="#fff"/>
    </g>
  </g>
  <path id="Path_10181" data-name="Path 10181" d="M84.75,309.073l-3.564,7.53c4.308-3.089,11.037-5.752,16.392-7.179-4.989-2.41-11.094-6.3-14.742-10.143l2.05,7.956c-24.03-4.895-41.287-23.329-41.294-44.446l-.868-.3C42.732,284.55,59.749,304.076,84.75,309.073Z" transform="translate(-19.639 -120.663)" fill="#3f3d56"/>
</svg>
